# xmcd
#
# Track frame offsets: 
#        150
#        17351
#        33604
#        46761
#        65020
#        83780
#        102598
#        122825
#        141017
#        160399
#
# Disc length: 2385 seconds
#
# Revision: 0
# Processed by: cddbd v1.5.1PL2 Copyright (c) Steve Scherf et al.
# Submitted via: ExactAudioCopy v0.95b4
#
DISCID=82094f0a
DTITLE=บอย  เขมราฐ - ยาสีฟัน กับ ขันตักน้ำ
DYEAR=2005
DGENRE=Country
TTITLE0=ยาสีฟันกับขันตักน้ำ
TTITLE1=เด็กเสิร์ฟคนเศร้า
TTITLE2=บางยี่ขัน
TTITLE3=สามพร สามจอก
TTITLE4=ออสเตรเลีย
TTITLE5=น้ำตาสีม่วง
TTITLE6=จากคนชื่อบอย
TTITLE7=ข้าวก่ำ
TTITLE8=ไม่อยากเป็นเมียน้อย
TTITLE9=โทษทีที่หลายใจ
EXTD=
EXTT0=
EXTT1=
EXTT2=
EXTT3=
EXTT4=
EXTT5=
EXTT6=
EXTT7=
EXTT8=
EXTT9=
PLAYORDER=
